<svg aria-hidden="true" style="position: absolute; width: 0; height: 0; overflow: hidden;" version="1.1" xmlns="http://www.w3.org/2000/svg" xmlns:xlink="http://www.w3.org/1999/xlink">
<defs>
<symbol id="icon-delete-second" viewBox="0 0 32 32">
<path fill="#56566b" style="fill: var(--color1, #56566b)" opacity="0.1" d="M6.222 0.889h19.556c1.964 0 3.556 1.592 3.556 3.556v19.556c0 1.964-1.592 3.556-3.556 3.556h-19.556c-1.964 0-3.556-1.592-3.556-3.556v-19.556c0-1.964 1.592-3.556 3.556-3.556z"></path>
<path fill="#c7ccdc" style="fill: var(--color2, #c7ccdc)" opacity="0.5" d="M22.496 9.799l-0.353-1.059c-0.135-0.403-0.511-0.674-0.936-0.674h-2.969v-0.967c0-0.483-0.393-0.876-0.876-0.876h-2.719c-0.483 0-0.876 0.393-0.876 0.876v0.967h-2.969c-0.425 0-0.801 0.271-0.936 0.674l-0.353 1.059c-0.080 0.241-0.040 0.508 0.109 0.714s0.389 0.329 0.643 0.329h0.369l0.813 10.050c0.060 0.746 0.693 1.33 1.441 1.33h6.402c0.748 0 1.381-0.584 1.441-1.33l0.813-10.050h0.205c0.254 0 0.494-0.123 0.643-0.329s0.189-0.473 0.109-0.714zM14.705 7.16h2.596v0.905h-2.596v-0.905zM19.792 20.817c-0.021 0.263-0.244 0.468-0.506 0.468h-6.402c-0.263 0-0.485-0.206-0.506-0.468l-0.807-9.975h9.028l-0.807 9.975zM10.462 9.905l0.29-0.868c0.007-0.020 0.025-0.033 0.046-0.033h10.409c0.021 0 0.040 0.013 0.046 0.033l0.29 0.868h-11.081z"></path>
<path fill="#c7ccdc" style="fill: var(--color2, #c7ccdc)" opacity="0.5" d="M18.297 20.783c0.008 0 0.017 0.001 0.025 0.001 0.248 0 0.455-0.194 0.468-0.444l0.44-8.45c0.013-0.259-0.185-0.479-0.444-0.493s-0.479 0.185-0.493 0.444l-0.44 8.45c-0.013 0.259 0.185 0.479 0.444 0.493z"></path>
<path fill="#c7ccdc" style="fill: var(--color2, #c7ccdc)" opacity="0.5" d="M13.236 20.341c0.014 0.25 0.221 0.443 0.468 0.443 0.009 0 0.017-0 0.026-0.001 0.258-0.014 0.457-0.235 0.443-0.494l-0.461-8.45c-0.014-0.259-0.235-0.457-0.493-0.443s-0.457 0.235-0.443 0.493l0.461 8.45z"></path>
<path fill="#c7ccdc" style="fill: var(--color2, #c7ccdc)" opacity="0.5" d="M16.008 20.784c0.259 0 0.469-0.21 0.469-0.469v-8.45c0-0.259-0.21-0.469-0.469-0.469s-0.469 0.21-0.469 0.469v8.45c0 0.259 0.21 0.469 0.469 0.469z"></path>
</symbol>
<symbol id="icon-delete-first" viewBox="0 0 32 32">
<path fill="#56566b" style="fill: var(--color1, #56566b)" opacity="0.5" d="M6.222 0.889h19.556c1.964 0 3.556 1.592 3.556 3.556v19.556c0 1.964-1.592 3.556-3.556 3.556h-19.556c-1.964 0-3.556-1.592-3.556-3.556v-19.556c0-1.964 1.592-3.556 3.556-3.556z"></path>
<path fill="#f6f7fb" style="fill: var(--color3, #f6f7fb)" d="M22.496 9.799l-0.353-1.059c-0.135-0.403-0.511-0.674-0.936-0.674h-2.969v-0.967c0-0.483-0.393-0.876-0.876-0.876h-2.719c-0.483 0-0.876 0.393-0.876 0.876v0.967h-2.969c-0.425 0-0.801 0.271-0.936 0.674l-0.353 1.059c-0.080 0.241-0.040 0.508 0.109 0.714s0.389 0.329 0.643 0.329h0.369l0.813 10.050c0.060 0.746 0.693 1.33 1.441 1.33h6.402c0.748 0 1.381-0.584 1.441-1.33l0.813-10.050h0.205c0.254 0 0.494-0.123 0.643-0.329s0.189-0.473 0.109-0.714zM14.705 7.16h2.596v0.905h-2.596v-0.905zM19.792 20.817c-0.021 0.263-0.244 0.468-0.506 0.468h-6.402c-0.263 0-0.485-0.206-0.506-0.468l-0.807-9.975h9.028l-0.807 9.975zM10.462 9.905l0.29-0.868c0.007-0.020 0.025-0.033 0.046-0.033h10.409c0.021 0 0.040 0.013 0.046 0.033l0.29 0.868h-11.081z"></path>
<path fill="#f6f7fb" style="fill: var(--color3, #f6f7fb)" d="M18.297 20.783c0.008 0 0.017 0.001 0.025 0.001 0.248 0 0.455-0.194 0.468-0.444l0.44-8.45c0.013-0.259-0.185-0.479-0.444-0.493s-0.479 0.185-0.493 0.444l-0.44 8.45c-0.013 0.259 0.185 0.479 0.444 0.493z"></path>
<path fill="#f6f7fb" style="fill: var(--color3, #f6f7fb)" d="M13.236 20.341c0.014 0.25 0.221 0.443 0.468 0.443 0.009 0 0.017-0 0.026-0.001 0.258-0.014 0.457-0.235 0.443-0.494l-0.461-8.45c-0.014-0.259-0.235-0.457-0.493-0.443s-0.457 0.235-0.443 0.493l0.461 8.45z"></path>
<path fill="#f6f7fb" style="fill: var(--color3, #f6f7fb)" d="M16.008 20.784c0.259 0 0.469-0.21 0.469-0.469v-8.45c0-0.259-0.21-0.469-0.469-0.469s-0.469 0.21-0.469 0.469v8.45c0 0.259 0.21 0.469 0.469 0.469z"></path>
</symbol>
<!-- <symbol id="icon-close" viewBox="0 0 32 32">
<path stroke-linejoin="miter" stroke-linecap="butt" stroke-miterlimit="4" stroke-width="4.5714" d="M2.286 2.286l27.429 27.429"></path>
<path stroke-linejoin="miter" stroke-linecap="butt" stroke-miterlimit="4" stroke-width="4.5714" d="M2.286 29.714l27.429-27.429"></path>
</symbol> -->
<symbol id="icon-close" viewBox="0 0 32 32">
<path fill="none" stroke="#c7ccdc" style="stroke: var(--color1, #c7ccdc)" stroke-linejoin="miter" stroke-linecap="butt" stroke-miterlimit="4" stroke-width="4.5714" d="M2.286 2.286l27.429 27.429"></path>
<path fill="none" stroke="#c7ccdc" style="stroke: var(--color1, #c7ccdc)" stroke-linejoin="miter" stroke-linecap="butt" stroke-miterlimit="4" stroke-width="4.5714" d="M2.286 29.714l27.429-27.429"></path>
</symbol>
<symbol id="icon-logout" viewBox="0 0 32 32">
<path d="M20 28h-16v-24h16v2h4v-6h-24v32h24v-6h-4v2h-0z"></path>
<path d="M24.586 8.586l-2.828 2.828 2.586 2.586h-10.344v4h10.344l-2.586 2.586 2.828 2.828 7.414-7.414-7.414-7.414z"></path>
</symbol>
<symbol id="icon-arrow-right" viewBox="0 0 32 32">
<path stroke-linejoin="miter" stroke-linecap="butt" stroke-miterlimit="4" stroke-width="5.3333" d="M9.333 2.667l10.667 13.333-10.667 13.333"></path>
</symbol>
<symbol id="icon-arrow-left" viewBox="0 0 32 32">
<path stroke-linejoin="miter" stroke-linecap="butt" stroke-miterlimit="4" stroke-width="5.3333" d="M22.667 2.667l-10.667 13.333 10.667 13.333"></path>
</symbol>
<symbol id="icon-arrow-back" viewBox="0 0 32 32">
<path d="M32 14.222h-25.191l6.364-6.382-2.507-2.507-10.667 10.667 10.667 10.667 2.507-2.507-6.364-6.382h25.191v-3.556z"></path>
</symbol>
<symbol id="icon-arrow-down" viewBox="0 0 32 32">
<path stroke-linejoin="miter" stroke-linecap="butt" stroke-miterlimit="4" stroke-width="5.3333" d="M2.667 9.333l13.333 10.667 13.333-10.667"></path>
</symbol>
<symbol id="icon-calculator" viewBox="0 0 32 32">
<path d="M27.25 0h-22.5c-1.551 0-2.813 1.262-2.813 2.813v26.375c0 1.551 1.262 2.812 2.813 2.812h22.5c1.551 0 2.813-1.262 2.813-2.812v-26.375c0-1.551-1.262-2.813-2.813-2.813zM28.188 29.188c0 0.517-0.421 0.937-0.938 0.937h-22.5c-0.517 0-0.938-0.42-0.938-0.937v-26.375c0-0.517 0.421-0.938 0.938-0.938h22.5c0.517 0 0.938 0.421 0.938 0.938v26.375z"></path>
<path d="M25.375 3.75h-18.75c-0.518 0-0.938 0.42-0.938 0.938v7.625c0 0.518 0.42 0.938 0.938 0.938h18.75c0.518 0 0.937-0.42 0.937-0.938v-7.625c0-0.518-0.42-0.938-0.937-0.938zM24.437 11.375h-16.875v-5.75h16.875v5.75z"></path>
<path d="M10.375 15.125h-3.75c-0.518 0-0.938 0.42-0.938 0.938v3.75c0 0.518 0.42 0.938 0.938 0.938h3.75c0.518 0 0.938-0.42 0.938-0.938v-3.75c0-0.518-0.42-0.938-0.938-0.938zM9.438 18.875h-1.875v-1.875h1.875v1.875z"></path>
<path d="M10.375 22.625h-3.75c-0.518 0-0.938 0.42-0.938 0.938v3.75c0 0.518 0.42 0.937 0.938 0.937h3.75c0.518 0 0.938-0.42 0.938-0.937v-3.75c0-0.518-0.42-0.938-0.938-0.938zM9.438 26.375h-1.875v-1.875h1.875v1.875z"></path>
<path d="M17.875 15.125h-3.75c-0.518 0-0.938 0.42-0.938 0.938v3.75c0 0.518 0.42 0.938 0.938 0.938h3.75c0.518 0 0.937-0.42 0.937-0.938v-3.75c0-0.518-0.42-0.938-0.937-0.938zM16.937 18.875h-1.875v-1.875h1.875v1.875z"></path>
<path d="M17.875 22.625h-3.75c-0.518 0-0.938 0.42-0.938 0.938v3.75c0 0.518 0.42 0.937 0.938 0.937h3.75c0.518 0 0.937-0.42 0.937-0.937v-3.75c0-0.518-0.42-0.938-0.937-0.938zM16.937 26.375h-1.875v-1.875h1.875v1.875z"></path>
<path d="M25.375 15.125h-3.75c-0.518 0-0.937 0.42-0.937 0.938v11.25c0 0.518 0.42 0.937 0.937 0.937h3.75c0.518 0 0.937-0.42 0.937-0.937v-11.25c0-0.518-0.42-0.938-0.937-0.938zM24.437 26.375h-1.875v-9.375h1.875v9.375z"></path>
</symbol>
<symbol id="icon-calendar" viewBox="0 0 32 32">
<path d="M27.961 3.307h-2.099v-0.514c0-0.518-0.42-0.938-0.937-0.938s-0.937 0.42-0.937 0.938v0.514h-2.587v-0.514c0-0.518-0.42-0.938-0.938-0.938s-0.937 0.42-0.937 0.938v0.514h-2.587v-0.514c0-0.518-0.42-0.938-0.937-0.938s-0.938 0.42-0.938 0.938v0.514h-2.587v-0.514c0-0.518-0.42-0.938-0.938-0.938s-0.938 0.42-0.938 0.938v0.514h-2.587v-0.514c0-0.518-0.42-0.938-0.938-0.938s-0.938 0.42-0.938 0.938v0.514h-2.099c-2.227 0-4.039 1.812-4.039 4.039v18.758c0 2.227 1.812 4.039 4.039 4.039h23.921c2.227 0 4.039-1.812 4.039-4.039v-18.758c0-2.227-1.812-4.039-4.039-4.039zM30.125 26.105c0 1.193-0.971 2.164-2.164 2.164h-23.921c-1.193 0-2.164-0.971-2.164-2.164v-15.333h28.25v15.333zM30.125 8.897h-28.25v-1.55c0-1.193 0.971-2.164 2.164-2.164h2.099v0.362c0 0.518 0.42 0.938 0.938 0.938s0.938-0.42 0.938-0.938v-0.362h2.587v0.362c0 0.518 0.42 0.938 0.938 0.938s0.938-0.42 0.938-0.938v-0.362h2.587v0.362c0 0.518 0.42 0.938 0.938 0.938s0.937-0.42 0.937-0.938v-0.362h2.587v0.362c0 0.518 0.42 0.938 0.937 0.938s0.938-0.42 0.938-0.938v-0.362h2.587v0.362c0 0.518 0.42 0.938 0.937 0.938s0.937-0.42 0.937-0.938v-0.362h2.099c1.193 0 2.164 0.971 2.164 2.164v1.55z"></path>
<path d="M10.451 12.77h-3.699c-0.518 0-0.938 0.42-0.938 0.938v3.827c0 0.518 0.42 0.938 0.938 0.938h3.699c0.518 0 0.938-0.42 0.938-0.938v-3.827c0-0.518-0.42-0.938-0.938-0.938zM9.513 16.598h-1.824v-1.952h1.824v1.952z"></path>
<path d="M17.85 12.77h-3.699c-0.518 0-0.938 0.42-0.938 0.938v3.827c0 0.518 0.42 0.938 0.938 0.938h3.699c0.518 0 0.937-0.42 0.937-0.938v-3.827c0-0.518-0.42-0.938-0.937-0.938zM16.912 16.598h-1.824v-1.952h1.824v1.952z"></path>
<path d="M25.248 12.77h-3.699c-0.518 0-0.937 0.42-0.937 0.938v3.827c0 0.518 0.42 0.938 0.937 0.938h3.699c0.518 0 0.937-0.42 0.937-0.938v-3.827c0-0.518-0.42-0.938-0.937-0.938zM24.311 16.598h-1.824v-1.952h1.824v1.952z"></path>
<path d="M10.451 20.041h-3.699c-0.518 0-0.938 0.42-0.938 0.937v3.828c0 0.518 0.42 0.937 0.938 0.937h3.699c0.518 0 0.938-0.42 0.938-0.937v-3.828c0-0.518-0.42-0.937-0.938-0.937zM9.513 23.869h-1.824v-1.952h1.824v1.952z"></path>
<path d="M17.85 20.041h-3.699c-0.518 0-0.938 0.42-0.938 0.937v3.828c0 0.518 0.42 0.937 0.938 0.937h3.699c0.518 0 0.937-0.42 0.937-0.937v-3.828c0-0.518-0.42-0.937-0.937-0.937zM16.912 23.869h-1.824v-1.952h1.824v1.952z"></path>
<path d="M25.248 20.041h-3.699c-0.518 0-0.937 0.42-0.937 0.937v3.828c0 0.518 0.42 0.937 0.937 0.937h3.699c0.518 0 0.937-0.42 0.937-0.937v-3.828c0-0.518-0.42-0.937-0.937-0.937zM24.311 23.869h-1.824v-1.952h1.824v1.952z"></path>
</symbol>
<symbol id="icon-scale" viewBox="0 0 32 32">
<path d="M0 9.6h6.857v22.4h-6.857v-22.4zM12.8 0h6.4v32h-6.4v-32zM25.6 18.286h6.4v13.714h-6.4v-13.714z"></path>
</symbol>
<symbol id="icon-Group-25" viewBox="0 0 131 32">
<path fill="#1f1f27" style="fill: var(--color1, #1f1f27)" d="M56.843 15.863v6.081c-0.226 0.299-0.58 0.627-1.061 0.984-0.474 0.35-1.105 0.653-1.892 0.908s-1.768 0.383-2.942 0.383c-0.999 0-1.914-0.168-2.745-0.503-0.831-0.343-1.549-0.842-2.155-1.499-0.598-0.656-1.061-1.455-1.389-2.395-0.328-0.948-0.492-2.027-0.492-3.238v-1.105c0-1.203 0.15-2.275 0.448-3.216 0.306-0.948 0.744-1.75 1.312-2.406s1.254-1.152 2.056-1.488c0.809-0.343 1.724-0.514 2.745-0.514 1.305 0 2.384 0.219 3.237 0.656 0.86 0.43 1.524 1.028 1.991 1.794s0.762 1.641 0.886 2.625h-2.691c-0.088-0.554-0.259-1.050-0.514-1.488-0.248-0.438-0.605-0.78-1.072-1.028-0.459-0.255-1.057-0.383-1.794-0.383-0.634 0-1.192 0.12-1.673 0.361s-0.882 0.594-1.203 1.061c-0.314 0.467-0.551 1.035-0.711 1.706s-0.241 1.436-0.241 2.297v1.127c0 0.875 0.091 1.652 0.273 2.33 0.19 0.678 0.459 1.251 0.809 1.717 0.357 0.467 0.791 0.82 1.302 1.061 0.51 0.233 1.086 0.35 1.728 0.35 0.627 0 1.141-0.051 1.542-0.153 0.401-0.109 0.718-0.237 0.952-0.383 0.241-0.153 0.427-0.299 0.558-0.437v-3.161h-3.314v-2.045h6.048zM59.566 18.214v-0.252c0-0.853 0.124-1.644 0.372-2.373 0.248-0.736 0.605-1.374 1.072-1.914 0.474-0.547 1.050-0.97 1.728-1.269 0.685-0.306 1.458-0.459 2.319-0.459 0.868 0 1.641 0.153 2.319 0.459 0.685 0.299 1.265 0.722 1.739 1.269 0.474 0.54 0.835 1.178 1.083 1.914 0.248 0.729 0.372 1.52 0.372 2.373v0.252c0 0.853-0.124 1.644-0.372 2.373s-0.609 1.367-1.083 1.914c-0.474 0.54-1.050 0.962-1.728 1.269-0.678 0.299-1.448 0.448-2.308 0.448-0.868 0-1.644-0.149-2.33-0.448-0.678-0.306-1.254-0.729-1.728-1.269-0.474-0.547-0.835-1.185-1.083-1.914s-0.372-1.52-0.372-2.373zM62.202 17.963v0.252c0 0.532 0.055 1.035 0.164 1.509s0.281 0.89 0.514 1.247c0.233 0.357 0.532 0.638 0.897 0.842s0.798 0.306 1.302 0.306c0.488 0 0.911-0.102 1.269-0.306 0.364-0.204 0.664-0.485 0.897-0.842s0.405-0.773 0.514-1.247c0.117-0.474 0.175-0.977 0.175-1.509v-0.252c0-0.525-0.058-1.021-0.175-1.488-0.109-0.474-0.284-0.893-0.525-1.258-0.233-0.365-0.532-0.649-0.897-0.853-0.357-0.211-0.784-0.317-1.28-0.317s-0.926 0.106-1.291 0.317c-0.357 0.204-0.653 0.489-0.886 0.853s-0.405 0.784-0.514 1.258c-0.109 0.467-0.164 0.962-0.164 1.488zM72.724 18.214v-0.252c0-0.853 0.124-1.644 0.372-2.373 0.248-0.736 0.605-1.374 1.072-1.914 0.474-0.547 1.050-0.97 1.728-1.269 0.685-0.306 1.458-0.459 2.319-0.459 0.868 0 1.641 0.153 2.319 0.459 0.685 0.299 1.265 0.722 1.739 1.269 0.474 0.54 0.835 1.178 1.083 1.914 0.248 0.729 0.372 1.52 0.372 2.373v0.252c0 0.853-0.124 1.644-0.372 2.373s-0.609 1.367-1.083 1.914c-0.474 0.54-1.050 0.962-1.728 1.269-0.678 0.299-1.447 0.448-2.308 0.448-0.868 0-1.644-0.149-2.33-0.448-0.678-0.306-1.254-0.729-1.728-1.269-0.474-0.547-0.835-1.185-1.083-1.914s-0.372-1.52-0.372-2.373zM75.36 17.963v0.252c0 0.532 0.055 1.035 0.164 1.509s0.281 0.89 0.514 1.247c0.233 0.357 0.532 0.638 0.897 0.842s0.798 0.306 1.301 0.306c0.489 0 0.912-0.102 1.269-0.306 0.365-0.204 0.664-0.485 0.897-0.842s0.405-0.773 0.514-1.247c0.117-0.474 0.175-0.977 0.175-1.509v-0.252c0-0.525-0.058-1.021-0.175-1.488-0.109-0.474-0.284-0.893-0.525-1.258-0.233-0.365-0.532-0.649-0.897-0.853-0.357-0.211-0.784-0.317-1.28-0.317s-0.926 0.106-1.291 0.317c-0.357 0.204-0.652 0.489-0.886 0.853s-0.405 0.784-0.514 1.258c-0.109 0.467-0.164 0.962-0.164 1.488zM93.964 12.166h2.395v11.506c0 1.065-0.226 1.969-0.678 2.712s-1.083 1.309-1.892 1.695c-0.809 0.394-1.746 0.591-2.811 0.591-0.452 0-0.955-0.066-1.509-0.197-0.547-0.131-1.079-0.343-1.597-0.634-0.51-0.284-0.937-0.66-1.28-1.127l1.236-1.553c0.423 0.503 0.89 0.871 1.4 1.105s1.046 0.35 1.608 0.35c0.605 0 1.119-0.113 1.542-0.339 0.43-0.219 0.762-0.543 0.995-0.973s0.35-0.955 0.35-1.575v-8.881l0.241-2.68zM85.925 18.214v-0.23c0-0.897 0.109-1.713 0.328-2.45 0.219-0.744 0.532-1.382 0.941-1.914 0.408-0.54 0.904-0.952 1.488-1.236 0.583-0.292 1.243-0.438 1.98-0.438 0.766 0 1.418 0.139 1.958 0.416 0.547 0.277 1.003 0.674 1.367 1.192 0.365 0.51 0.649 1.123 0.853 1.838 0.212 0.707 0.368 1.495 0.47 2.363v0.733c-0.095 0.846-0.255 1.619-0.481 2.319s-0.525 1.305-0.897 1.816c-0.372 0.51-0.831 0.904-1.378 1.181-0.54 0.277-1.178 0.416-1.914 0.416-0.722 0-1.374-0.149-1.958-0.448-0.576-0.299-1.072-0.718-1.488-1.258-0.408-0.54-0.722-1.174-0.941-1.903-0.219-0.736-0.328-1.535-0.328-2.395zM88.561 17.984v0.23c0 0.54 0.051 1.043 0.153 1.509 0.109 0.467 0.273 0.879 0.492 1.236 0.226 0.35 0.51 0.627 0.853 0.831 0.35 0.197 0.762 0.295 1.236 0.295 0.62 0 1.127-0.131 1.52-0.394 0.401-0.262 0.707-0.616 0.919-1.061 0.219-0.452 0.372-0.955 0.459-1.509v-1.98c-0.044-0.43-0.135-0.831-0.273-1.203-0.131-0.372-0.31-0.696-0.536-0.973-0.226-0.284-0.51-0.503-0.853-0.656-0.343-0.16-0.747-0.241-1.214-0.241-0.474 0-0.886 0.102-1.236 0.306s-0.638 0.485-0.864 0.842c-0.219 0.357-0.383 0.773-0.492 1.247s-0.164 0.981-0.164 1.52zM102.364 7.2v16.8h-2.647v-16.8h2.647zM110.916 24.219c-0.875 0-1.666-0.142-2.373-0.427-0.7-0.292-1.298-0.696-1.794-1.214-0.488-0.518-0.864-1.127-1.127-1.827s-0.394-1.455-0.394-2.264v-0.438c0-0.926 0.135-1.764 0.405-2.516s0.645-1.393 1.127-1.925c0.481-0.54 1.050-0.952 1.706-1.236s1.367-0.427 2.133-0.427c0.846 0 1.586 0.142 2.22 0.427s1.159 0.685 1.575 1.203c0.423 0.51 0.736 1.119 0.941 1.827 0.212 0.707 0.317 1.487 0.317 2.341v1.127h-9.144v-1.892h6.541v-0.208c-0.015-0.474-0.109-0.919-0.284-1.334-0.168-0.416-0.427-0.751-0.777-1.006s-0.817-0.383-1.4-0.383c-0.437 0-0.828 0.095-1.17 0.284-0.335 0.182-0.616 0.448-0.842 0.798s-0.401 0.773-0.525 1.269c-0.117 0.489-0.175 1.039-0.175 1.652v0.438c0 0.518 0.069 0.999 0.208 1.444 0.146 0.438 0.357 0.82 0.634 1.148s0.612 0.587 1.006 0.777c0.394 0.182 0.842 0.273 1.345 0.273 0.634 0 1.2-0.128 1.695-0.383s0.926-0.616 1.291-1.083l1.389 1.345c-0.255 0.372-0.587 0.729-0.995 1.072-0.408 0.335-0.908 0.609-1.498 0.82-0.583 0.211-1.261 0.317-2.034 0.317z"></path>
<path fill="#2196f3" style="fill: var(--color2, #2196f3)" d="M27.511 13.334c0.122 0 0.221 0.104 0.221 0.232v2.434c0 0.911-0.081 1.802-0.236 2.666-1.198 6.711-6.839 11.783-13.6 11.734-7.587-0.055-13.659-6.48-13.642-14.432 0.017-7.938 6.161-14.368 13.739-14.368 3.712 0 7.080 1.544 9.553 4.051 0.089 0.090 0.092 0.24 0.004 0.332l-3.285 3.443c-0.084 0.089-0.221 0.091-0.308 0.005-1.552-1.548-3.652-2.499-5.964-2.499-4.775 0-8.62 4.001-8.652 9.006-0.033 5.037 3.854 9.132 8.652 9.132 3.893 0 7.186-2.696 8.272-6.403h-8.051c-0.122 0-0.221-0.104-0.221-0.232v-4.868c0-0.128 0.099-0.232 0.221-0.232l13.296 0z"></path>
<path fill="#1e88e5" style="fill: var(--color3, #1e88e5)" d="M27.51 13.334h-1.659c0.122 0 0.221 0.104 0.221 0.232v2.434c0 0.911-0.081 1.802-0.236 2.666-1.143 6.402-6.329 11.313-12.675 11.708 0.243 0.015 0.487 0.024 0.733 0.026 6.761 0.049 12.402-5.023 13.6-11.734 0.155-0.864 0.236-1.755 0.236-2.666v-2.434c0-0.128-0.099-0.232-0.221-0.232z"></path>
<path fill="#f44336" style="fill: var(--color4, #f44336)" d="M6.134 12.202l-4.172-3.16c2.341-4.438 6.852-7.442 12.031-7.442 3.712 0 7.081 1.544 9.553 4.051 0.089 0.090 0.092 0.24 0.004 0.332l-3.285 3.443c-0.084 0.088-0.221 0.091-0.308 0.005-1.552-1.549-3.652-2.5-5.965-2.5-3.485 0-6.488 2.159-7.859 5.271z"></path>
<path fill="#e53935" style="fill: var(--color5, #e53935)" d="M4.929 11.29l1.205 0.912c1.251-2.84 3.863-4.886 6.959-5.221 0.023-0.003 0.046-0.006 0.069-0.008-0.272-0.027-0.549-0.041-0.828-0.041-3.148 0-5.891 1.739-7.405 4.359z"></path>
<path fill="#e53935" style="fill: var(--color5, #e53935)" d="M21.887 5.651c0.089 0.090 0.092 0.24 0.004 0.332l-2.666 2.795c0.256 0.204 0.5 0.421 0.732 0.653 0.087 0.086 0.223 0.084 0.308-0.005l3.285-3.443c0.088-0.092 0.085-0.241-0.004-0.332-2.473-2.507-5.841-4.051-9.553-4.051-0.279 0-0.555 0.010-0.829 0.027 3.383 0.211 6.437 1.705 8.724 4.024z"></path>
<path fill="#4caf50" style="fill: var(--color6, #4caf50)" d="M24.071 25.786c-2.509 2.838-6.096 4.614-10.078 4.614-5.379 0-10.036-3.24-12.291-7.96l4.26-3.060c1.278 3.334 4.393 5.688 8.031 5.688 2.283 0 4.36-0.927 5.906-2.442l4.172 3.159z"></path>
<path fill="#42a652" style="fill: var(--color7, #42a652)" d="M5.962 19.38l-1.256 0.902c1.459 2.849 4.328 4.786 7.628 4.786 0.279 0 0.555-0.014 0.827-0.041-3.276-0.327-6.020-2.57-7.2-5.647z"></path>
<path fill="#42a652" style="fill: var(--color7, #42a652)" d="M13.993 30.4c3.982 0 7.569-1.776 10.078-4.614l-1.022-0.774c-2.356 3.073-5.89 5.112-9.883 5.361 0.274 0.017 0.549 0.026 0.827 0.026z"></path>
<path fill="#ffc107" style="fill: var(--color8, #ffc107)" d="M5.34 16c0 1.195 0.221 2.336 0.621 3.381l-4.26 3.060c-0.927-1.938-1.448-4.125-1.448-6.44 0-2.524 0.619-4.895 1.707-6.958l4.172 3.16c-0.509 1.155-0.793 2.442-0.793 3.798z"></path>
<path fill="#ffb300" style="fill: var(--color9, #ffb300)" d="M4.706 20.283l1.256-0.902c-0.401-1.045-0.621-2.186-0.621-3.381 0-1.356 0.284-2.643 0.793-3.798l-1.205-0.912c-0.782 1.354-1.236 2.942-1.247 4.647-0.010 1.572 0.362 3.053 1.024 4.346z"></path>
</symbol>
</defs>
</svg>
