<svg aria-hidden="true" style="position: absolute; width: 0; height: 0; overflow: hidden;" version="1.1" xmlns="http://www.w3.org/2000/svg" xmlns:xlink="http://www.w3.org/1999/xlink">
<defs>
<symbol id="icon-delete-second" viewBox="0 0 32 32">
<path fill="#56566b" style="fill: var(--color1, #56566b)" opacity="0.1" d="M6.222 0.889h19.556c1.964 0 3.556 1.592 3.556 3.556v19.556c0 1.964-1.592 3.556-3.556 3.556h-19.556c-1.964 0-3.556-1.592-3.556-3.556v-19.556c0-1.964 1.592-3.556 3.556-3.556z"></path>
<path fill="#c7ccdc" style="fill: var(--color2, #c7ccdc)" opacity="0.5" d="M22.496 9.799l-0.353-1.059c-0.135-0.403-0.511-0.674-0.936-0.674h-2.969v-0.967c0-0.483-0.393-0.876-0.876-0.876h-2.719c-0.483 0-0.876 0.393-0.876 0.876v0.967h-2.969c-0.425 0-0.801 0.271-0.936 0.674l-0.353 1.059c-0.080 0.241-0.040 0.508 0.109 0.714s0.389 0.329 0.643 0.329h0.369l0.813 10.050c0.060 0.746 0.693 1.33 1.441 1.33h6.402c0.748 0 1.381-0.584 1.441-1.33l0.813-10.050h0.205c0.254 0 0.494-0.123 0.643-0.329s0.189-0.473 0.109-0.714zM14.705 7.16h2.596v0.905h-2.596v-0.905zM19.792 20.817c-0.021 0.263-0.244 0.468-0.506 0.468h-6.402c-0.263 0-0.485-0.206-0.506-0.468l-0.807-9.975h9.028l-0.807 9.975zM10.462 9.905l0.29-0.868c0.007-0.020 0.025-0.033 0.046-0.033h10.409c0.021 0 0.040 0.013 0.046 0.033l0.29 0.868h-11.081z"></path>
<path fill="#c7ccdc" style="fill: var(--color2, #c7ccdc)" opacity="0.5" d="M18.297 20.783c0.008 0 0.017 0.001 0.025 0.001 0.248 0 0.455-0.194 0.468-0.444l0.44-8.45c0.013-0.259-0.185-0.479-0.444-0.493s-0.479 0.185-0.493 0.444l-0.44 8.45c-0.013 0.259 0.185 0.479 0.444 0.493z"></path>
<path fill="#c7ccdc" style="fill: var(--color2, #c7ccdc)" opacity="0.5" d="M13.236 20.341c0.014 0.25 0.221 0.443 0.468 0.443 0.009 0 0.017-0 0.026-0.001 0.258-0.014 0.457-0.235 0.443-0.494l-0.461-8.45c-0.014-0.259-0.235-0.457-0.493-0.443s-0.457 0.235-0.443 0.493l0.461 8.45z"></path>
<path fill="#c7ccdc" style="fill: var(--color2, #c7ccdc)" opacity="0.5" d="M16.008 20.784c0.259 0 0.469-0.21 0.469-0.469v-8.45c0-0.259-0.21-0.469-0.469-0.469s-0.469 0.21-0.469 0.469v8.45c0 0.259 0.21 0.469 0.469 0.469z"></path>
</symbol>
<symbol id="icon-delete-first" viewBox="0 0 32 32">
<path fill="#56566b" style="fill: var(--color1, #56566b)" opacity="0.5" d="M6.222 0.889h19.556c1.964 0 3.556 1.592 3.556 3.556v19.556c0 1.964-1.592 3.556-3.556 3.556h-19.556c-1.964 0-3.556-1.592-3.556-3.556v-19.556c0-1.964 1.592-3.556 3.556-3.556z"></path>
<path fill="#f6f7fb" style="fill: var(--color3, #f6f7fb)" d="M22.496 9.799l-0.353-1.059c-0.135-0.403-0.511-0.674-0.936-0.674h-2.969v-0.967c0-0.483-0.393-0.876-0.876-0.876h-2.719c-0.483 0-0.876 0.393-0.876 0.876v0.967h-2.969c-0.425 0-0.801 0.271-0.936 0.674l-0.353 1.059c-0.080 0.241-0.040 0.508 0.109 0.714s0.389 0.329 0.643 0.329h0.369l0.813 10.050c0.060 0.746 0.693 1.33 1.441 1.33h6.402c0.748 0 1.381-0.584 1.441-1.33l0.813-10.050h0.205c0.254 0 0.494-0.123 0.643-0.329s0.189-0.473 0.109-0.714zM14.705 7.16h2.596v0.905h-2.596v-0.905zM19.792 20.817c-0.021 0.263-0.244 0.468-0.506 0.468h-6.402c-0.263 0-0.485-0.206-0.506-0.468l-0.807-9.975h9.028l-0.807 9.975zM10.462 9.905l0.29-0.868c0.007-0.020 0.025-0.033 0.046-0.033h10.409c0.021 0 0.040 0.013 0.046 0.033l0.29 0.868h-11.081z"></path>
<path fill="#f6f7fb" style="fill: var(--color3, #f6f7fb)" d="M18.297 20.783c0.008 0 0.017 0.001 0.025 0.001 0.248 0 0.455-0.194 0.468-0.444l0.44-8.45c0.013-0.259-0.185-0.479-0.444-0.493s-0.479 0.185-0.493 0.444l-0.44 8.45c-0.013 0.259 0.185 0.479 0.444 0.493z"></path>
<path fill="#f6f7fb" style="fill: var(--color3, #f6f7fb)" d="M13.236 20.341c0.014 0.25 0.221 0.443 0.468 0.443 0.009 0 0.017-0 0.026-0.001 0.258-0.014 0.457-0.235 0.443-0.494l-0.461-8.45c-0.014-0.259-0.235-0.457-0.493-0.443s-0.457 0.235-0.443 0.493l0.461 8.45z"></path>
<path fill="#f6f7fb" style="fill: var(--color3, #f6f7fb)" d="M16.008 20.784c0.259 0 0.469-0.21 0.469-0.469v-8.45c0-0.259-0.21-0.469-0.469-0.469s-0.469 0.21-0.469 0.469v8.45c0 0.259 0.21 0.469 0.469 0.469z"></path>
</symbol>
<symbol id="icon-close" viewBox="0 0 32 32">
<path stroke-linejoin="miter" stroke-linecap="butt" stroke-miterlimit="4" stroke-width="4.5714" d="M2.286 2.286l27.429 27.429"></path>
<path stroke-linejoin="miter" stroke-linecap="butt" stroke-miterlimit="4" stroke-width="4.5714" d="M2.286 29.714l27.429-27.429"></path>
</symbol>
<symbol id="icon-logout" viewBox="0 0 32 32">
<path d="M20 28h-16v-24h16v2h4v-6h-24v32h24v-6h-4v2h-0z"></path>
<path d="M24.586 8.586l-2.828 2.828 2.586 2.586h-10.344v4h10.344l-2.586 2.586 2.828 2.828 7.414-7.414-7.414-7.414z"></path>
</symbol>
<symbol id="icon-arrow-right" viewBox="0 0 32 32">
<path stroke-linejoin="miter" stroke-linecap="butt" stroke-miterlimit="4" stroke-width="5.3333" d="M9.333 2.667l10.667 13.333-10.667 13.333"></path>
</symbol>
<symbol id="icon-arrow-left" viewBox="0 0 32 32">
<path stroke-linejoin="miter" stroke-linecap="butt" stroke-miterlimit="4" stroke-width="5.3333" d="M22.667 2.667l-10.667 13.333 10.667 13.333"></path>
</symbol>
<symbol id="icon-arrow-back" viewBox="0 0 32 32">
<path d="M32 14.222h-25.191l6.364-6.382-2.507-2.507-10.667 10.667 10.667 10.667 2.507-2.507-6.364-6.382h25.191v-3.556z"></path>
</symbol>
<symbol id="icon-arrow-down" viewBox="0 0 32 32">
<path stroke-linejoin="miter" stroke-linecap="butt" stroke-miterlimit="4" stroke-width="5.3333" d="M2.667 9.333l13.333 10.667 13.333-10.667"></path>
</symbol>
<symbol id="icon-calculator" viewBox="0 0 32 32">
<path d="M27.25 0h-22.5c-1.551 0-2.813 1.262-2.813 2.813v26.375c0 1.551 1.262 2.812 2.813 2.812h22.5c1.551 0 2.813-1.262 2.813-2.812v-26.375c0-1.551-1.262-2.813-2.813-2.813zM28.188 29.188c0 0.517-0.421 0.937-0.938 0.937h-22.5c-0.517 0-0.938-0.42-0.938-0.937v-26.375c0-0.517 0.421-0.938 0.938-0.938h22.5c0.517 0 0.938 0.421 0.938 0.938v26.375z"></path>
<path d="M25.375 3.75h-18.75c-0.518 0-0.938 0.42-0.938 0.938v7.625c0 0.518 0.42 0.938 0.938 0.938h18.75c0.518 0 0.937-0.42 0.937-0.938v-7.625c0-0.518-0.42-0.938-0.937-0.938zM24.437 11.375h-16.875v-5.75h16.875v5.75z"></path>
<path d="M10.375 15.125h-3.75c-0.518 0-0.938 0.42-0.938 0.938v3.75c0 0.518 0.42 0.938 0.938 0.938h3.75c0.518 0 0.938-0.42 0.938-0.938v-3.75c0-0.518-0.42-0.938-0.938-0.938zM9.438 18.875h-1.875v-1.875h1.875v1.875z"></path>
<path d="M10.375 22.625h-3.75c-0.518 0-0.938 0.42-0.938 0.938v3.75c0 0.518 0.42 0.937 0.938 0.937h3.75c0.518 0 0.938-0.42 0.938-0.937v-3.75c0-0.518-0.42-0.938-0.938-0.938zM9.438 26.375h-1.875v-1.875h1.875v1.875z"></path>
<path d="M17.875 15.125h-3.75c-0.518 0-0.938 0.42-0.938 0.938v3.75c0 0.518 0.42 0.938 0.938 0.938h3.75c0.518 0 0.937-0.42 0.937-0.938v-3.75c0-0.518-0.42-0.938-0.937-0.938zM16.937 18.875h-1.875v-1.875h1.875v1.875z"></path>
<path d="M17.875 22.625h-3.75c-0.518 0-0.938 0.42-0.938 0.938v3.75c0 0.518 0.42 0.937 0.938 0.937h3.75c0.518 0 0.937-0.42 0.937-0.937v-3.75c0-0.518-0.42-0.938-0.937-0.938zM16.937 26.375h-1.875v-1.875h1.875v1.875z"></path>
<path d="M25.375 15.125h-3.75c-0.518 0-0.937 0.42-0.937 0.938v11.25c0 0.518 0.42 0.937 0.937 0.937h3.75c0.518 0 0.937-0.42 0.937-0.937v-11.25c0-0.518-0.42-0.938-0.937-0.938zM24.437 26.375h-1.875v-9.375h1.875v9.375z"></path>
</symbol>
<symbol id="icon-calendar" viewBox="0 0 32 32">
<path d="M27.961 3.307h-2.099v-0.514c0-0.518-0.42-0.938-0.937-0.938s-0.937 0.42-0.937 0.938v0.514h-2.587v-0.514c0-0.518-0.42-0.938-0.938-0.938s-0.937 0.42-0.937 0.938v0.514h-2.587v-0.514c0-0.518-0.42-0.938-0.937-0.938s-0.938 0.42-0.938 0.938v0.514h-2.587v-0.514c0-0.518-0.42-0.938-0.938-0.938s-0.938 0.42-0.938 0.938v0.514h-2.587v-0.514c0-0.518-0.42-0.938-0.938-0.938s-0.938 0.42-0.938 0.938v0.514h-2.099c-2.227 0-4.039 1.812-4.039 4.039v18.758c0 2.227 1.812 4.039 4.039 4.039h23.921c2.227 0 4.039-1.812 4.039-4.039v-18.758c0-2.227-1.812-4.039-4.039-4.039zM30.125 26.105c0 1.193-0.971 2.164-2.164 2.164h-23.921c-1.193 0-2.164-0.971-2.164-2.164v-15.333h28.25v15.333zM30.125 8.897h-28.25v-1.55c0-1.193 0.971-2.164 2.164-2.164h2.099v0.362c0 0.518 0.42 0.938 0.938 0.938s0.938-0.42 0.938-0.938v-0.362h2.587v0.362c0 0.518 0.42 0.938 0.938 0.938s0.938-0.42 0.938-0.938v-0.362h2.587v0.362c0 0.518 0.42 0.938 0.938 0.938s0.937-0.42 0.937-0.938v-0.362h2.587v0.362c0 0.518 0.42 0.938 0.937 0.938s0.938-0.42 0.938-0.938v-0.362h2.587v0.362c0 0.518 0.42 0.938 0.937 0.938s0.937-0.42 0.937-0.938v-0.362h2.099c1.193 0 2.164 0.971 2.164 2.164v1.55z"></path>
<path d="M10.451 12.77h-3.699c-0.518 0-0.938 0.42-0.938 0.938v3.827c0 0.518 0.42 0.938 0.938 0.938h3.699c0.518 0 0.938-0.42 0.938-0.938v-3.827c0-0.518-0.42-0.938-0.938-0.938zM9.513 16.598h-1.824v-1.952h1.824v1.952z"></path>
<path d="M17.85 12.77h-3.699c-0.518 0-0.938 0.42-0.938 0.938v3.827c0 0.518 0.42 0.938 0.938 0.938h3.699c0.518 0 0.937-0.42 0.937-0.938v-3.827c0-0.518-0.42-0.938-0.937-0.938zM16.912 16.598h-1.824v-1.952h1.824v1.952z"></path>
<path d="M25.248 12.77h-3.699c-0.518 0-0.937 0.42-0.937 0.938v3.827c0 0.518 0.42 0.938 0.937 0.938h3.699c0.518 0 0.937-0.42 0.937-0.938v-3.827c0-0.518-0.42-0.938-0.937-0.938zM24.311 16.598h-1.824v-1.952h1.824v1.952z"></path>
<path d="M10.451 20.041h-3.699c-0.518 0-0.938 0.42-0.938 0.937v3.828c0 0.518 0.42 0.937 0.938 0.937h3.699c0.518 0 0.938-0.42 0.938-0.937v-3.828c0-0.518-0.42-0.937-0.938-0.937zM9.513 23.869h-1.824v-1.952h1.824v1.952z"></path>
<path d="M17.85 20.041h-3.699c-0.518 0-0.938 0.42-0.938 0.937v3.828c0 0.518 0.42 0.937 0.938 0.937h3.699c0.518 0 0.937-0.42 0.937-0.937v-3.828c0-0.518-0.42-0.937-0.937-0.937zM16.912 23.869h-1.824v-1.952h1.824v1.952z"></path>
<path d="M25.248 20.041h-3.699c-0.518 0-0.937 0.42-0.937 0.937v3.828c0 0.518 0.42 0.937 0.937 0.937h3.699c0.518 0 0.937-0.42 0.937-0.937v-3.828c0-0.518-0.42-0.937-0.937-0.937zM24.311 23.869h-1.824v-1.952h1.824v1.952z"></path>
</symbol>
<symbol id="icon-scale" viewBox="0 0 32 32">
<path d="M0 9.6h6.857v22.4h-6.857v-22.4zM12.8 0h6.4v32h-6.4v-32zM25.6 18.286h6.4v13.714h-6.4v-13.714z"></path>
</symbol>
<symbol id="icon-google" viewBox="0 0 32 32">
<path fill="#2196f3" style="fill: var(--color4, #2196f3)" d="M30.567 13.038c0.136 0 0.246 0.115 0.246 0.258v2.704c0 1.012-0.090 2.002-0.262 2.962-1.331 7.457-7.598 13.092-15.111 13.038-8.43-0.061-15.176-7.2-15.158-16.036 0.019-8.82 6.846-15.964 15.265-15.964 4.125 0 7.867 1.715 10.615 4.501 0.099 0.101 0.102 0.266 0.004 0.369l-3.65 3.826c-0.094 0.098-0.246 0.101-0.342 0.005-1.725-1.721-4.058-2.777-6.627-2.777-5.305 0-9.577 4.446-9.614 10.007-0.036 5.597 4.282 10.146 9.614 10.146 4.326 0 7.985-2.995 9.191-7.115h-8.945c-0.136 0-0.246-0.115-0.246-0.258v-5.408c0-0.142 0.11-0.258 0.246-0.258l14.774 0z"></path>
<path fill="#1e88e5" style="fill: var(--color5, #1e88e5)" d="M30.567 13.038h-1.843c0.136 0 0.246 0.115 0.246 0.258v2.704c0 1.012-0.090 2.002-0.262 2.962-1.27 7.114-7.033 12.57-14.083 13.009 0.27 0.017 0.541 0.026 0.815 0.028 7.513 0.054 13.78-5.581 15.111-13.038 0.172-0.96 0.262-1.95 0.262-2.962v-2.704c0-0.142-0.11-0.258-0.246-0.258z"></path>
<path fill="#f44336" style="fill: var(--color6, #f44336)" d="M6.815 11.78l-4.636-3.511c2.601-4.931 7.613-8.269 13.368-8.269 4.125 0 7.867 1.715 10.615 4.501 0.099 0.101 0.102 0.266 0.004 0.369l-3.65 3.826c-0.094 0.098-0.246 0.101-0.342 0.005-1.725-1.721-4.058-2.777-6.627-2.777-3.872 0-7.209 2.399-8.732 5.857z"></path>
<path fill="#e53935" style="fill: var(--color7, #e53935)" d="M5.477 10.767l1.338 1.014c1.39-3.156 4.292-5.429 7.732-5.802 0.026-0.003 0.051-0.006 0.077-0.009-0.303-0.030-0.61-0.046-0.92-0.046-3.498 0-6.546 1.933-8.228 4.843z"></path>
<path fill="#e53935" style="fill: var(--color7, #e53935)" d="M24.319 4.501c0.099 0.101 0.102 0.266 0.004 0.369l-2.962 3.105c0.284 0.226 0.556 0.468 0.813 0.726 0.096 0.096 0.248 0.094 0.342-0.005l3.65-3.826c0.098-0.102 0.095-0.268-0.004-0.369-2.748-2.786-6.49-4.501-10.615-4.501-0.31 0-0.617 0.011-0.922 0.030 3.759 0.235 7.152 1.894 9.694 4.471z"></path>
<path fill="#4caf50" style="fill: var(--color8, #4caf50)" d="M26.745 26.873c-2.788 3.153-6.773 5.126-11.198 5.126-5.976 0-11.151-3.6-13.656-8.844l4.733-3.4c1.42 3.704 4.881 6.32 8.923 6.32 2.537 0 4.844-1.030 6.562-2.713l4.636 3.51z"></path>
<path fill="#42a652" style="fill: var(--color9, #42a652)" d="M6.624 19.756l-1.396 1.003c1.621 3.165 4.809 5.318 8.476 5.318 0.31 0 0.617-0.016 0.919-0.046-3.64-0.364-6.689-2.855-8-6.274z"></path>
<path fill="#42a652" style="fill: var(--color9, #42a652)" d="M15.547 32c4.425 0 8.41-1.974 11.198-5.126l-1.136-0.86c-2.617 3.414-6.544 5.679-10.982 5.957 0.304 0.019 0.611 0.029 0.919 0.029z"></path>
<path fill="#ffc107" style="fill: var(--color10, #ffc107)" d="M5.934 16c0 1.328 0.245 2.595 0.69 3.756l-4.733 3.4c-1.030-2.153-1.609-4.584-1.609-7.156 0-2.804 0.688-5.439 1.897-7.731l4.636 3.511c-0.566 1.283-0.881 2.713-0.881 4.22z"></path>
<path fill="#ffb300" style="fill: var(--color11, #ffb300)" d="M5.228 20.759l1.396-1.003c-0.445-1.161-0.69-2.429-0.69-3.756 0-1.507 0.316-2.937 0.881-4.22l-1.338-1.014c-0.869 1.504-1.373 3.269-1.386 5.164-0.011 1.747 0.402 3.392 1.137 4.829z"></path>
</symbol>
</defs>
</svg>
